# xmcd
#
# Track frame offsets:
# 150
# 12530
# 24350
# 34108
# 46078
# 58045
# 70275
# 85313
# 94088
# 105300
# 115538
# 126075
# 136650
# 147750
# 157350
# 169125
# 183000
# 196538
# 205800
# 217800
# 224875
# 230438
# 232910
# 243113
# 254588
# 260513
# 265650
# 276900
# 288300
# 298913
#
# Disc length: 4031 seconds
#
#
# Revision: 0
# Processed by: cddbd v1.5.2PL0 Copyright (c) Steve Scherf et al.
# Submitted via: Nero 7, 11, 10, 0 
#
DISCID=b10fbd1e
DTITLE=Kid Thomas - Wail, Baby, Wail!
DYEAR=1993
DGENRE=Blues
TTITLE0=Beaulah Come Back
TTITLE1=The Wolf Pack
TTITLE2=The Spell
TTITLE3=Come Here Woman
TTITLE4=Jivin' Mess
TTITLE5=She's Fine
TTITLE6=Here's My Story
TTITLE7=Rockin' This Joint Tonight
TTITLE8=You Are an Angel
TTITLE9=Wail, Baby, Wail
TTITLE10=Five Long Years
TTITLE11=Lookie There
TTITLE12=Cozy Lounge Blues
TTITLE13=Willowbrook
TTITLE14=You Are an Angel [Version 2]
TTITLE15=The Hurt Is On
TTITLE16=I Love You So
TTITLE17=The Spell [Alternate Take]
TTITLE18=The Wolf Pack [Alternate Take 1]
TTITLE19=The Wolf Pack [Alternate Take 2]
TTITLE20=The Wolf Pack [Alternate Take 3]
TTITLE21=Beaulah Come Back [Alternate Take 1]
TTITLE22=Beaulah Come Back [Alternate Take 2]
TTITLE23=Beaulah Come Back [Alternate Take 3]
TTITLE24=Come Here Woman [Alternate Take]
TTITLE25=Beaulah Come Back [Alternate Take 4]
TTITLE26=I've Been Crying
TTITLE27=Ninety Nine and Half
TTITLE28=Here Comes the Night
TTITLE29=Dogging Around
EXTD=
EXTT0=Beaulah Come Back
EXTT1=The Wolf Pack
EXTT2=The Spell
EXTT3=Come Here Woman
EXTT4=Jivin' Mess
EXTT5=She's Fine
EXTT6=Here's My Story
EXTT7=Rockin' This Joint Tonight
EXTT8=You Are an Angel
EXTT9=Wail, Baby, Wail
EXTT10=Five Long Years
EXTT11=Lookie There
EXTT12=Cozy Lounge Blues
EXTT13=Willowbrook
EXTT14=You Are an Angel [Version 2]
EXTT15=The Hurt Is On
EXTT16=I Love You So
EXTT17=The Spell [Alternate Take]
EXTT18=The Wolf Pack [Alternate Take 1]
EXTT19=The Wolf Pack [Alternate Take 2]
EXTT20=The Wolf Pack [Alternate Take 3]
EXTT21=Beaulah Come Back [Alternate Take 1]
EXTT22=Beaulah Come Back [Alternate Take 2]
EXTT23=Beaulah Come Back [Alternate Take 3]
EXTT24=Come Here Woman [Alternate Take]
EXTT25=Beaulah Come Back [Alternate Take 4]
EXTT26=I've Been Crying
EXTT27=Ninety Nine and Half
EXTT28=Here Comes the Night
EXTT29=Dogging Around
PLAYORDER=
